#!OML:ASF H:\Dans Jumps\Project 1\Capture day 1\Session 1\subject.ASF
:FULLY-SPECIFIED
:DEGREES
621
root 0.0447613 17.7144 2.43966 6.64687 -0.655037 -1.87557
lowerback -4.30933 -0.520138 -0.240689
upperback 0.915464 -0.728427 1.45239
thorax 3.38151 -0.382358 1.57881
lowerneck -11.9408 -3.25866 -4.05433
upperneck 16.2811 -4.14747 2.61062
head 7.09105 -2.01206 1.11235
rclavicle 1.6524e-015 -1.68967e-015
rhumerus -28.4117 -20.6352 -78.5545
rradius 21.6871
rwrist 36.9947
rhand -19.9746 -26.2351
rfingers 7.12502
rthumb 6.3643 -56.1194
lclavicle 1.6524e-015 -1.68967e-015
lhumerus -25.8255 2.19852 88.9379
lradius 16.7624
lwrist 2.79356
lhand -25.9945 -4.08868
lfingers 7.12502
lthumb 0.551085 25.8904
rfemur -11.3485 -0.633168 18.6507
rtibia 19.6054
rfoot -13.2425 -3.1508
rtoes 9.54361
lfemur -10.8427 6.03716 -15.8547
ltibia 17.7936
lfoot -9.53638 7.36161
ltoes -3.02798
622
root 0.0452306 17.7141 2.44192 6.64153 -0.687386 -1.87567
lowerback -4.33075 -0.527863 -0.243122
upperback 0.924374 -0.738664 1.44752
thorax 3.40306 -0.387575 1.57423
lowerneck -11.9037 -3.30886 -4.08299
upperneck 16.2083 -4.21697 2.64581
head 7.06485 -2.04446 1.12231
rclavicle 8.7838e-015 -1.15295e-014
rhumerus -28.4091 -20.6226 -78.5708
rradius 21.6875
rwrist 36.9789
rhand -19.9823 -26.22
rfingers 7.12502
rthumb 6.35692 -56.1046
lclavicle 8.7838e-015 -1.15295e-014
lhumerus -25.8368 2.24961 88.92
lradius 16.7134
lwrist 2.67648
lhand -26.0365 -4.21564
lfingers 7.12502
lthumb 0.51045 25.7635
rfemur -11.3409 -0.637317 18.6467
rtibia 19.6092
rfoot -13.2511 -3.11879
rtoes 9.54069
lfemur -10.8217 6.04642 -15.8566
ltibia 17.7966
lfoot -9.5437 7.38538
ltoes -3.0283
623
root 0.0455601 17.7138 2.44413 6.6386 -0.723201 -1.87681
lowerback -4.35328 -0.534459 -0.245086
upperback 0.932601 -0.747422 1.44281
thorax 3.42448 -0.392044 1.56965
lowerneck -11.8734 -3.35738 -4.10523
upperneck 16.1352 -4.28366 2.67312
head 7.03939 -2.07576 1.12887
rclavicle 1.82633e-015 1.49089e-015
rhumerus -28.4051 -20.6233 -78.5842
rradius 21.6847
rwrist 36.9746
rhand -19.9919 -26.1976
rfingers 7.12502
rthumb 6.34766 -56.0825
lclavicle 1.82633e-015 1.49089e-015
lhumerus -25.8504 2.30194 88.8989
lradius 16.6517
lwrist 2.53463
lhand -26.1077 -4.45441
lfingers 7.12502
lthumb 0.441746 25.5249
rfemur -11.3383 -0.637462 18.6439
rtibia 19.6159
rfoot -13.2589 -3.08572
rtoes 9.53873
lfemur -10.8032 6.05935 -15.8572
ltibia 17.7988
lfoot -9.55133 7.40836
ltoes -3.03829
624
root 0.0457964 17.7135 2.44638 6.63655 -0.759793 -1.87604
lowerback -4.37689 -0.540933 -0.249469
upperback 0.941131 -0.75587 1.43757
thorax 3.44684 -0.396407 1.56588
lowerneck -11.8542 -3.40211 -4.12068
upperneck 16.0646 -4.34497 2.69447
head 7.01624 -2.1045 1.13277
rclavicle -3.49116e-015 -9.93923e-015
rhumerus -28.4002 -20.6277 -78.5975
rradius 21.681
rwrist 36.9726
rhand -20.0003 -26.1744
rfingers 7.12502
rthumb 6.33951 -56.0595
lclavicle -3.49116e-015 -9.93923e-015
lhumerus -25.8619 2.35 88.8771
lradius 16.5876
lwrist 2.40532
lhand -26.1782 -4.70181
lfingers 7.12502
lthumb 0.373623 25.2776
rfemur -11.3384 -0.638635 18.6393
rtibia 19.6252
rfoot -13.2661 -3.05077
rtoes 9.53605
lfemur -10.7852 6.07376 -15.8598
ltibia 17.8002
lfoot -9.55837 7.42987
ltoes -3.05284
